<?xml version="1.0" standalone="no"?>
<!DOCTYPE svg PUBLIC "-//W3C//DTD SVG 20010904//EN"
 "http://www.w3.org/TR/2001/REC-SVG-20010904/DTD/svg10.dtd">
<svg version="1.0" xmlns="http://www.w3.org/2000/svg"
 width="483.000000pt" height="427.000000pt" viewBox="0 0 483.000000 427.000000"
 preserveAspectRatio="xMidYMid meet">

<g transform="translate(0.000000,427.000000) scale(0.100000,-0.100000)"
fill="#000000" stroke="none">
<path d="M3053 3955 c-74 -48 -91 -64 -87 -79 4 -12 2 -16 -5 -12 -17 11 -13
-15 5 -35 15 -17 15 -19 0 -34 -21 -22 -20 -28 3 -20 12 3 21 0 25 -10 3 -8
12 -15 21 -15 23 0 18 -15 -10 -28 -14 -6 -25 -16 -25 -22 0 -5 -7 -10 -16
-10 -9 0 -13 -5 -10 -12 3 -7 9 -21 12 -30 4 -10 11 -18 16 -18 6 0 5 -7 -2
-15 -7 -8 -18 -15 -25 -15 -7 0 -11 -10 -10 -24 4 -34 13 -46 33 -46 14 0 14
-2 3 -9 -8 -6 -10 -14 -5 -22 5 -8 7 -22 6 -31 -2 -11 7 -22 22 -30 29 -12 34
-28 11 -28 -9 0 -18 -7 -21 -15 -4 -10 -13 -13 -25 -10 -23 8 -24 2 -4 -19 14
-14 14 -17 -4 -33 -15 -13 -17 -19 -8 -25 9 -6 9 -10 0 -16 -14 -9 -15 -142
-1 -159 7 -9 7 -13 -1 -13 -6 0 -11 -4 -11 -10 0 -5 6 -10 14 -10 8 0 17 -7
20 -16 8 -21 8 -26 -3 -20 -5 3 -12 -1 -15 -10 -11 -28 -6 -36 11 -19 15 15
17 15 25 1 5 -9 16 -16 23 -16 24 0 17 -20 -10 -30 -14 -5 -25 -14 -25 -20 0
-5 -7 -10 -16 -10 -9 0 -13 -5 -10 -12 3 -7 9 -21 12 -30 4 -10 11 -18 17 -18
5 0 2 -9 -8 -20 -10 -11 -21 -18 -25 -15 -3 2 -4 -10 -2 -26 3 -19 13 -34 26
-39 11 -5 15 -9 9 -9 -14 -1 -18 -31 -5 -31 5 0 9 -6 9 -12 0 -7 4 -21 8 -32
6 -14 4 -17 -6 -14 -8 3 -14 11 -14 19 0 14 -14 29 -27 29 -16 0 -7 -65 13
-107 14 -30 26 -42 36 -39 8 3 24 -1 36 -8 27 -18 78 -10 70 10 -3 9 1 14 12
14 10 0 13 -5 9 -12 -5 -8 0 -9 17 -5 13 4 31 7 39 7 12 0 13 2 1 9 -11 7 -9
10 8 16 11 3 25 3 31 0 5 -3 10 -1 10 5 0 6 -7 13 -16 17 -13 5 -11 10 12 31
l27 26 -26 9 c-15 5 -27 13 -27 18 0 4 -7 5 -17 2 -10 -4 -14 -2 -9 5 3 6 21
9 39 7 34 -4 34 -5 -20 33 -10 7 -13 10 -6 7 6 -3 14 1 17 7 5 10 7 10 12 1
13 -28 20 -10 20 46 -1 33 -4 57 -8 55 -5 -3 -8 4 -8 15 0 12 4 21 9 21 5 0 8
12 6 28 -2 15 -4 30 -4 35 -1 4 -10 7 -21 7 -25 0 -26 15 -3 24 15 6 15 8 3
16 -8 6 -11 10 -7 10 5 0 1 8 -9 17 -15 16 -15 17 2 24 29 12 32 10 27 -11 -3
-12 0 -20 6 -20 8 0 11 14 9 38 -3 31 -7 37 -26 36 -21 -1 -21 1 -7 22 19 29
19 38 0 30 -11 -4 -15 1 -15 19 0 18 4 23 15 19 19 -8 19 1 0 30 -15 23 -15
23 10 19 23 -5 25 -3 25 36 0 23 -5 41 -11 41 -6 0 -9 -9 -6 -20 5 -21 -8 -26
-31 -11 -11 7 -11 11 2 23 8 9 12 18 9 22 -4 3 0 6 8 6 10 1 9 3 -3 11 -24 14
-23 27 4 31 42 6 28 51 -16 51 -14 0 -23 3 -20 8 3 5 18 7 35 5 24 -3 27 -1
18 10 -6 8 -17 14 -25 14 -7 0 -16 5 -20 12 -4 6 -3 8 4 4 5 -3 13 0 16 6 5
10 7 10 12 1 10 -23 25 -14 20 12 -3 13 0 27 5 30 5 4 3 12 -4 19 -6 8 -15 12
-19 10 -4 -2 -9 0 -13 6 -3 5 3 10 14 10 12 0 21 5 21 11 0 5 -5 7 -11 3 -7
-4 -10 1 -7 12 2 11 13 20 25 22 12 2 24 9 26 16 4 10 -1 12 -14 9 -14 -4 -19
0 -19 16 0 24 4 25 31 10 16 -8 19 -17 14 -39 -6 -26 -3 -31 31 -45 43 -18 47
-18 39 -6 -3 5 4 12 14 16 12 4 18 12 14 21 -4 10 0 12 11 8 14 -6 13 -11 -9
-40 -22 -29 -22 -41 1 -31 3 1 9 -5 14 -14 7 -11 20 -15 41 -13 25 3 30 1 25
-12 -3 -8 -2 -13 3 -10 5 3 11 -3 14 -13 6 -26 65 -57 80 -42 16 16 30 13 23
-5 -4 -10 0 -15 12 -13 38 3 43 0 30 -21 -12 -19 -14 -19 -25 -3 -11 14 -13
14 -13 1 0 -8 9 -23 20 -33 16 -15 22 -16 35 -5 20 16 35 3 39 -34 1 -14 6
-29 10 -34 4 -4 7 -2 6 3 -1 6 -2 21 -1 34 1 20 3 22 16 11 12 -10 13 -15 4
-20 -18 -12 -1 -30 28 -30 l25 0 -22 -18 -23 -18 27 -27 c15 -15 34 -27 43
-27 13 0 11 4 -6 19 l-22 19 21 7 c25 8 31 4 33 -23 1 -22 43 -37 51 -18 3 7
8 6 15 -4 8 -11 7 -16 -4 -18 -8 -2 -15 -10 -15 -17 0 -9 -6 -12 -17 -8 -10 3
0 -11 21 -31 26 -24 42 -33 46 -25 5 7 10 8 14 1 3 -6 1 -12 -6 -14 -8 -3 -8
-9 0 -24 7 -12 12 -14 12 -5 0 11 3 11 15 1 8 -7 15 -18 15 -25 0 -20 32 -43
37 -27 3 6 11 12 18 12 7 0 15 5 17 11 2 7 9 5 17 -5 11 -14 11 -16 -3 -16
-19 0 -48 -25 -39 -33 3 -3 16 -2 29 3 15 6 24 6 24 0 0 -6 -4 -10 -9 -10 -5
0 -8 -11 -7 -24 0 -13 4 -22 8 -20 4 3 12 -5 18 -16 6 -11 15 -18 19 -16 12 7
44 -31 37 -42 -9 -15 20 -22 34 -9 10 9 11 9 5 -2 -6 -11 -4 -13 9 -8 10 4 29
10 42 13 13 3 24 10 24 15 0 5 10 8 23 7 29 -2 97 21 97 33 0 5 -9 9 -20 9
-15 0 -20 7 -20 25 0 14 5 25 10 25 13 0 13 37 0 45 -6 4 -10 16 -8 28 2 18
-2 22 -24 21 -24 -1 -26 1 -17 22 5 15 5 24 -1 24 -6 0 -10 7 -10 15 0 18 -34
37 -53 29 -9 -3 -16 3 -20 17 -4 14 -11 20 -20 16 -11 -4 -14 1 -13 18 3 19
-3 24 -31 30 -27 5 -32 9 -24 22 17 31 -20 76 -55 68 -16 -3 -23 1 -27 16 -5
17 -11 20 -31 17 -18 -4 -26 -1 -26 8 0 17 32 18 47 3 8 -8 13 -8 17 0 7 11
-33 31 -66 34 -18 1 -22 10 -19 36 2 7 -2 10 -8 6 -6 -3 -11 -2 -11 4 0 5 5
11 11 13 5 2 -8 15 -29 28 -22 14 -49 39 -61 57 -14 22 -26 30 -36 26 -10 -3
-15 -1 -13 8 2 9 -7 12 -30 10 -23 -2 -33 1 -31 11 3 28 -2 46 -14 51 -10 4
-13 -2 -9 -21 4 -22 2 -25 -8 -15 -11 10 -16 9 -25 -4 -18 -24 -37 -6 -30 27
5 22 1 32 -20 48 -14 12 -33 18 -41 15 -10 -4 -14 3 -14 25 0 22 -6 32 -21 37
-12 4 -26 2 -32 -4 -7 -7 -14 -4 -21 12 -7 12 -22 23 -34 25 -12 2 -22 8 -22
13 0 5 12 6 28 3 24 -7 26 -6 13 9 -12 15 -18 14 -67 -14 l-54 -30 0 24 c0 13
-5 28 -12 35 -9 9 -8 12 5 12 9 0 17 6 17 14 0 10 -10 14 -35 12 -29 -3 -33
-1 -24 11 9 11 9 12 -4 8 -8 -4 -18 -2 -22 4 -3 6 0 11 7 11 35 2 -63 39 -102
40 -26 0 -50 4 -55 8 -6 4 -51 -19 -102 -53z m197 -51 c0 -17 -22 -14 -28 4
-2 7 3 12 12 12 9 0 16 -7 16 -16z m35 6 c3 -5 -1 -10 -9 -10 -9 0 -16 5 -16
10 0 6 4 10 9 10 6 0 13 -4 16 -10z m22 -32 c-3 -8 -6 -5 -6 6 -1 11 2 17 5
13 3 -3 4 -12 1 -19z m-230 6 c-3 -3 -12 -4 -19 -1 -8 3 -5 6 6 6 11 1 17 -2
13 -5z m-51 -59 c13 -13 13 -15 1 -15 -8 0 -20 7 -27 15 -9 11 -10 15 -1 15 7
0 19 -7 27 -15z m374 -25 c0 -5 -9 -10 -20 -10 -11 0 -20 5 -20 10 0 6 9 10
20 10 11 0 20 -4 20 -10z m-285 -38 c-3 -3 -11 0 -18 7 -9 10 -8 11 6 5 10 -3
15 -9 12 -12z m306 -43 c-9 -4 -18 -4 -21 -1 -3 2 1 7 8 9 6 3 12 14 13 26 1
20 2 20 8 -3 5 -18 3 -27 -8 -31z m-351 12 c0 -5 -7 -14 -15 -21 -16 -14 -18
-10 -9 14 6 17 24 22 24 7z m574 -87 c8 -21 8 -24 -3 -24 -5 0 -11 9 -14 20
-6 24 8 27 17 4z m-494 -10 c0 -8 -4 -12 -10 -9 -5 3 -10 10 -10 16 0 5 5 9
10 9 6 0 10 -7 10 -16z m340 12 c0 -11 -19 -15 -25 -6 -3 5 1 10 9 10 9 0 16
-2 16 -4z m290 -36 c0 -5 -12 -10 -27 -10 -22 0 -25 2 -13 10 20 13 40 13 40
0z m-620 -20 c0 -5 -12 -10 -27 -9 -25 0 -26 1 -8 9 27 12 35 12 35 0z m495
-20 c-3 -5 -11 -10 -16 -10 -6 0 -7 5 -4 10 3 6 11 10 16 10 6 0 7 -4 4 -10z
m142 -10 c1 -13 -4 -20 -15 -19 -10 0 -12 3 -5 5 7 3 9 12 6 20 -3 8 -1 14 4
14 5 0 9 -9 10 -20z m-674 -72 c3 -9 -6 -13 -24 -14 -35 -1 -37 4 -6 16 12 5
23 9 23 9 1 1 4 -5 7 -11z m752 -19 c-10 -15 -25 -10 -19 6 4 8 10 12 15 9 5
-3 7 -10 4 -15z m30 1 c3 -5 1 -10 -4 -10 -6 0 -11 5 -11 10 0 6 2 10 4 10 3
0 8 -4 11 -10z m26 -31 c-9 -22 -10 -22 -10 -3 -1 11 2 24 6 27 12 12 14 0 4
-24z m-865 -16 c-4 -4 -11 -1 -16 7 -16 25 -11 35 7 17 9 -9 13 -20 9 -24z
m54 -27 c0 -2 -7 -7 -16 -10 -8 -3 -12 -2 -9 4 6 10 25 14 25 6z m-96 -61
c-10 -8 -25 -15 -33 -15 -11 0 -9 4 5 15 10 8 25 15 33 15 11 0 9 -4 -5 -15z
m884 -6 c-2 -6 3 -14 10 -16 6 -3 12 2 12 11 0 9 5 16 10 16 12 0 12 -3 4 -24
-3 -9 -12 -16 -19 -16 -16 0 -37 25 -28 33 9 10 13 8 11 -4z m-893 -39 c3 -5
1 -10 -4 -10 -6 0 -11 5 -11 10 0 6 2 10 4 10 3 0 8 -4 11 -10z m17 -32 c-7
-7 -12 -8 -12 -2 0 6 3 14 7 17 3 4 9 5 12 2 2 -3 -1 -11 -7 -17z m868 -43 c0
-8 -7 -15 -16 -15 -14 0 -14 3 -4 15 7 8 14 15 16 15 2 0 4 -7 4 -15z m120
-35 c0 -5 -4 -10 -9 -10 -6 0 -13 5 -16 10 -3 6 1 10 9 10 9 0 16 -4 16 -10z
m-994 -36 c-9 -9 -20 -13 -24 -9 -4 4 -1 10 6 12 6 3 12 12 12 21 0 12 3 13
11 5 9 -9 7 -16 -5 -29z m1087 6 c-3 -13 -13 -20 -27 -19 -17 1 -17 2 -3 6 9
2 17 11 17 19 0 8 4 14 9 14 5 0 7 -9 4 -20z m-1093 -55 c7 -8 8 -15 2 -15 -5
0 -15 7 -22 15 -7 8 -8 15 -2 15 5 0 15 -7 22 -15z m1130 -49 c0 -3 -4 -8 -10
-11 -5 -3 -10 -1 -10 4 0 6 5 11 10 11 6 0 10 -2 10 -4z m150 -52 c0 -13 -4
-24 -9 -24 -5 0 -9 13 -9 30 1 35 18 30 18 -6z m-120 16 c0 -5 -4 -10 -9 -10
-6 0 -13 5 -16 10 -3 6 1 10 9 10 9 0 16 -4 16 -10z m-1110 -9 c0 -5 -6 -14
-14 -20 -12 -10 -13 -8 -9 8 5 21 23 30 23 12z m80 -97 c0 -8 -4 -12 -10 -9
-5 3 -10 10 -10 16 0 5 5 9 10 9 6 0 10 -7 10 -16z m10 -44 c0 -5 -12 -10 -27
-9 -25 0 -26 1 -8 9 27 12 35 12 35 0z m-37 -102 c3 -9 -6 -13 -24 -14 -35 -1
-37 4 -6 16 12 5 23 9 23 9 1 1 4 -5 7 -11z m-23 -60 c0 -43 -12 -68 -31 -68
-11 0 -19 7 -19 18 0 14 2 15 10 2 5 -8 12 -11 17 -7 7 7 -8 22 -31 30 -5 1
-6 13 -2 25 10 31 56 31 56 0z m81 -41 c-10 -9 -11 -8 -5 6 3 10 9 15 12 12 3
-3 0 -11 -7 -18z m-151 -8 c0 -18 -2 -19 -15 -9 -8 7 -15 16 -15 21 0 5 7 9
15 9 9 0 15 -9 15 -21z m40 -49 c0 -5 -4 -10 -10 -10 -5 0 -10 5 -10 10 0 6 5
10 10 10 6 0 10 -4 10 -10z"/>
<path d="M3425 3899 c-10 -15 3 -25 16 -12 7 7 7 13 1 17 -6 3 -14 1 -17 -5z"/>
<path d="M2940 3730 c0 -5 7 -10 15 -10 8 0 15 5 15 10 0 6 -7 10 -15 10 -8 0
-15 -4 -15 -10z"/>
<path d="M3690 3725 c0 -8 4 -15 9 -15 5 0 11 7 15 15 3 9 0 15 -9 15 -8 0
-15 -7 -15 -15z"/>
<path d="M2940 3500 c0 -5 5 -10 10 -10 6 0 10 5 10 10 0 6 -4 10 -10 10 -5 0
-10 -4 -10 -10z"/>
<path d="M953 3474 c-7 -3 -10 -11 -7 -18 3 -8 -2 -16 -10 -19 -9 -4 -16 -1
-16 5 0 23 -47 -34 -60 -72 -7 -22 -16 -40 -20 -40 -3 0 -14 -16 -23 -35 -12
-25 -13 -35 -4 -35 9 0 9 -2 -1 -9 -10 -6 -10 -10 3 -21 22 -18 19 -37 -8 -44
-13 -3 -24 -12 -24 -20 0 -12 5 -13 20 -4 16 8 19 8 14 -5 -3 -9 1 -18 9 -21
14 -6 20 -35 7 -37 -30 -3 -95 -27 -77 -28 23 -2 24 -45 1 -66 -12 -11 -25
-19 -30 -17 -5 1 -6 -2 -3 -7 4 -5 2 -12 -3 -15 -13 -9 -1 -46 15 -46 8 0 14
-4 14 -10 0 -5 -4 -10 -10 -10 -12 0 -13 -50 -2 -66 4 -6 15 -13 25 -17 24 -9
13 -27 -13 -22 -12 2 -18 0 -15 -5 3 -5 1 -11 -4 -14 -5 -4 -12 -2 -16 4 -13
21 -24 9 -15 -16 13 -34 13 -34 -10 -34 -11 0 -20 -1 -20 -2 -6 -40 -30 -158
-35 -170 -5 -13 -2 -18 11 -19 11 0 14 -3 7 -6 -15 -6 -17 -33 -3 -33 17 0 11
-30 -10 -52 -11 -12 -20 -25 -20 -30 0 -13 28 -9 32 4 3 7 7 8 10 3 9 -15 -10
-55 -25 -55 -9 0 -14 -11 -14 -30 0 -16 4 -30 9 -30 18 0 6 -16 -21 -28 -21
-9 -28 -18 -24 -31 3 -10 0 -22 -6 -25 -16 -10 5 -46 27 -46 14 0 14 -2 3 -9
-12 -8 -12 -12 -2 -25 14 -17 7 -21 -26 -17 -16 2 -16 -28 -1 -79 9 -29 18
-40 32 -40 11 0 28 -7 38 -17 11 -9 18 -11 18 -5 0 7 5 12 11 12 5 0 7 -4 4
-10 -3 -5 3 -10 14 -10 12 0 21 5 21 10 0 14 28 12 33 -2 3 -10 11 -10 37 -1
25 9 37 10 47 2 7 -6 13 -8 13 -3 0 19 -16 31 -37 29 -19 -1 -21 1 -11 13 8 9
14 10 16 3 2 -7 13 -6 33 4 23 13 29 22 27 45 -1 16 -5 28 -8 28 -25 -2 -41 4
-37 15 2 6 12 11 21 11 13 -2 14 1 5 12 -6 8 -17 14 -25 14 -7 0 -16 5 -20 12
-4 6 -3 8 4 4 5 -3 13 0 16 6 5 10 7 10 12 1 3 -7 10 -13 15 -13 14 0 4 40
-12 51 -10 6 -8 9 11 9 18 0 21 3 11 9 -12 7 -10 14 8 36 27 35 28 93 1 137
l-19 34 23 2 c20 1 23 -2 19 -21 -5 -18 -3 -20 7 -10 31 29 11 117 -22 97 -6
-4 -6 2 1 14 6 12 16 24 22 27 6 4 7 19 4 37 -6 27 -5 29 13 24 24 -8 28 -3
37 47 5 25 4 37 -4 37 -6 0 -11 -10 -11 -22 0 -21 0 -21 -21 -2 -17 15 -18 20
-6 22 19 4 30 29 17 37 -18 11 -10 25 14 25 21 0 24 5 27 43 l4 43 -35 -3
c-25 -2 -31 0 -20 7 8 5 11 10 5 11 -5 0 -1 4 10 8 11 5 25 4 33 -2 16 -13 19
-9 23 28 2 17 8 36 14 44 7 11 7 13 -2 7 -18 -10 -17 29 1 46 26 26 29 56 6
63 -27 9 -26 25 3 25 12 0 17 4 12 8 -6 4 -11 19 -13 33 -3 23 0 26 22 22 21
-4 24 -8 16 -23 -14 -27 -12 -34 5 -20 8 7 15 21 15 32 0 15 5 18 20 13 14 -5
20 -2 20 9 0 9 7 16 15 16 8 0 15 6 15 13 0 8 4 7 10 -3 14 -21 12 -30 -5 -30
-19 0 -19 -5 1 -29 10 -11 22 -17 29 -15 7 3 22 -7 34 -22 11 -15 21 -21 21
-14 0 10 3 10 15 0 8 -7 13 -16 10 -20 -3 -4 2 -14 11 -21 12 -10 20 -10 35
-1 26 17 31 15 24 -8 -4 -13 -2 -20 7 -21 7 -1 18 -2 23 -4 6 -1 16 -3 23 -3
10 -2 10 -7 2 -23 -11 -20 -12 -20 -31 -3 -18 17 -26 9 -11 -11 20 -28 42 -38
57 -25 13 11 14 10 10 -2 -3 -8 1 -21 10 -28 12 -10 15 -10 15 4 0 15 2 15 24
-1 19 -14 21 -20 10 -26 -21 -12 -7 -27 23 -27 25 0 26 0 8 -20 -17 -19 -17
-21 0 -40 10 -11 25 -20 34 -20 14 1 13 3 -2 15 -18 13 -18 14 2 25 18 9 21 8
22 -12 1 -13 1 -27 0 -32 -1 -5 7 -6 19 -3 15 4 20 0 20 -14 0 -11 -7 -19 -16
-19 -8 0 -13 -4 -9 -10 4 -6 15 -6 31 0 36 14 43 12 37 -9 -3 -12 -11 -17 -19
-14 -20 8 -17 -10 6 -35 11 -12 20 -26 20 -32 0 -6 5 -8 11 -5 12 8 38 -23 39
-46 0 -22 29 -33 46 -18 11 9 14 8 14 -4 0 -8 -6 -18 -12 -20 -9 -4 -8 -6 2
-6 9 -1 21 4 28 11 9 9 12 7 12 -11 0 -12 -4 -20 -9 -16 -5 3 -12 1 -15 -4 -4
-5 -2 -12 4 -16 6 -4 8 -11 5 -16 -4 -5 -2 -9 4 -9 5 0 17 -3 27 -7 13 -5 15
-3 9 7 -5 8 -4 11 2 7 6 -4 9 -19 7 -34 -2 -16 -1 -22 2 -15 8 16 34 -3 34
-25 0 -24 28 -45 51 -38 15 5 19 4 14 -5 -4 -6 12 -2 34 10 25 12 39 25 35 32
-4 6 -1 9 7 6 8 -3 45 10 82 29 57 28 67 36 57 49 -16 18 -18 18 -16 -3 1 -14
-5 -17 -29 -15 -38 5 -50 16 -39 39 4 10 8 33 9 51 2 31 -10 39 -47 33 -11 -2
-10 27 2 34 5 3 0 17 -13 31 -15 18 -28 23 -44 19 -16 -4 -21 -2 -17 8 3 8 -6
22 -21 31 -18 12 -24 23 -20 35 5 15 1 17 -21 13 -21 -4 -25 -1 -24 14 7 60
-17 100 -52 90 -17 -4 -19 -1 -14 20 4 14 2 24 -4 24 -6 0 -9 4 -6 9 5 8 -40
26 -56 23 -9 -2 -11 12 -9 41 1 9 -4 17 -13 17 -18 0 -22 16 -5 22 5 2 -8 15
-30 28 -22 14 -41 29 -41 33 0 13 -40 61 -40 49 0 -6 -6 -9 -14 -6 -8 3 -13
11 -10 19 4 9 -2 11 -22 7 -17 -3 -25 -1 -21 5 4 6 0 19 -8 29 -14 19 -14 19
-15 -1 0 -15 -7 -20 -28 -21 -27 -1 -28 1 -28 47 0 57 -2 59 -43 62 -28 2 -32
5 -28 24 6 30 -37 60 -59 42 -11 -9 -14 -8 -14 6 0 11 -5 15 -15 11 -10 -4
-15 1 -15 14 0 11 6 20 13 20 7 0 6 4 -4 10 -14 8 -62 1 -101 -15 -13 -5 -18
-2 -18 9 0 8 -10 24 -22 36 -19 18 -20 20 -4 20 31 0 11 23 -22 25 -17 2 -30
0 -28 -4 5 -7 -69 -5 -99 3 -11 3 -25 3 -32 0z m104 -50 c2 -7 -8 -9 -27 -6
-42 6 -50 24 -9 20 18 -2 34 -8 36 -14z m-89 -48 c0 -14 -7 -27 -14 -30 -15
-6 -17 -1 -8 32 8 29 22 28 22 -2z m222 -32 c0 -2 -12 -4 -26 -4 -14 0 -23 4
-20 9 6 8 46 4 46 -5z m13 -72 c-3 -12 -13 -22 -22 -22 -10 0 -12 3 -5 8 6 4
14 16 17 26 10 25 18 16 10 -12z m-293 -12 c0 -5 -2 -10 -4 -10 -2 0 -12 -3
-22 -7 -16 -6 -17 -5 -4 10 17 19 30 22 30 7z m174 -9 c3 -5 -1 -11 -9 -14 -9
-4 -12 -1 -8 9 6 16 10 17 17 5z m-214 -40 c13 -25 13 -34 0 -26 -16 10 -32
45 -21 45 6 0 15 -9 21 -19z m180 -1 c0 -5 -5 -10 -11 -10 -5 0 -7 5 -4 10 3
6 8 10 11 10 2 0 4 -4 4 -10z m200 -40 c0 -5 -4 -10 -10 -10 -5 0 -10 5 -10
10 0 6 5 10 10 10 6 0 10 -4 10 -10z m170 -32 c0 -20 -18 -5 -23 19 -5 26 -4
26 9 8 8 -10 14 -22 14 -27z m-120 2 c0 -5 -2 -10 -4 -10 -3 0 -8 5 -11 10 -3
6 -1 10 4 10 6 0 11 -4 11 -10z m236 -19 c-8 -12 -46 -21 -46 -11 0 5 8 11 18
13 29 8 33 7 28 -2z m-296 -15 c0 -11 -19 -15 -25 -6 -3 5 1 10 9 10 9 0 16
-2 16 -4z m-360 -21 c-7 -8 -17 -15 -22 -15 -6 0 -5 7 2 15 7 8 17 15 22 15 6
0 5 -7 -2 -15z m680 -16 c0 -6 -4 -7 -10 -4 -5 3 -10 11 -10 16 0 6 5 7 10 4
6 -3 10 -11 10 -16z m5 -29 c-3 -5 -10 -10 -16 -10 -5 0 -9 5 -9 10 0 6 7 10
16 10 8 0 12 -4 9 -10z m-631 -55 c-4 -8 -8 -15 -10 -15 -2 0 -4 7 -4 15 0 8
4 15 10 15 5 0 7 -7 4 -15z m711 -4 c17 -7 17 -8 -8 -13 -19 -4 -27 -1 -27 8
0 15 6 16 35 5z m38 -62 c-6 -6 -9 -1 -7 13 3 33 6 36 11 14 3 -10 1 -22 -4
-27z m92 -9 c14 -15 15 -20 4 -20 -19 1 -50 25 -42 33 10 11 19 8 38 -13z
m-928 -66 c-3 -3 -12 -4 -19 -1 -8 3 -5 6 6 6 11 1 17 -2 13 -5z m809 -19 c-1
-14 -5 -27 -8 -30 -4 -5 -4 19 1 48 3 19 9 4 7 -18z m-836 -22 c0 -7 -4 -13
-10 -13 -5 0 -10 12 -10 28 0 21 2 24 10 12 5 -8 10 -21 10 -27z m868 7 c-15
-24 -22 -19 -13 9 3 12 11 19 16 16 5 -4 3 -14 -3 -25z m-823 -50 c-3 -5 -12
-10 -18 -10 -7 0 -6 4 3 10 19 12 23 12 15 0z m-115 -40 c-8 -5 -19 -10 -25
-10 -5 0 -3 5 5 10 8 5 20 10 25 10 6 0 3 -5 -5 -10z m970 -14 c0 -3 -4 -8
-10 -11 -5 -3 -10 -1 -10 4 0 6 5 11 10 11 6 0 10 -2 10 -4z m-983 -28 c-3 -8
-6 -5 -6 6 -1 11 2 17 5 13 3 -3 4 -12 1 -19z m1013 -8 c0 -5 -4 -10 -9 -10
-6 0 -13 5 -16 10 -3 6 1 10 9 10 9 0 16 -4 16 -10z m-990 -20 c0 -5 -7 -10
-15 -10 -8 0 -15 5 -15 10 0 6 7 10 15 10 8 0 15 -4 15 -10z m1086 -16 c-3 -9
-6 -18 -6 -20 0 -2 -8 -4 -17 -3 -11 0 -13 3 -5 6 6 2 12 11 12 19 0 8 5 14
11 14 6 0 8 -7 5 -16z m-69 -66 c-3 -8 -6 -5 -6 6 -1 11 2 17 5 13 3 -3 4 -12
1 -19z m-1047 -22 c0 -2 -7 -7 -16 -10 -8 -3 -12 -2 -9 4 6 10 25 14 25 6z
m1140 -20 c0 -3 -4 -8 -10 -11 -5 -3 -10 -1 -10 4 0 6 5 11 10 11 6 0 10 -2
10 -4z m-1159 -47 c10 -19 9 -20 -10 -9 -12 6 -21 18 -21 26 0 19 16 10 31
-17z m1199 5 c0 -8 -5 -12 -10 -9 -6 4 -8 11 -5 16 9 14 15 11 15 -7z m120
-15 c0 -11 -4 -17 -10 -14 -5 3 -10 15 -10 26 0 11 5 17 10 14 6 -3 10 -15 10
-26z m-1290 -88 c-14 -27 -36 -40 -27 -17 4 10 7 22 7 27 0 5 7 9 15 9 12 0
14 -4 5 -19z m57 -116 c0 -8 -4 -12 -9 -9 -4 3 -8 9 -8 15 0 5 4 9 8 9 5 0 9
-7 9 -15z m-132 -15 c3 -5 1 -10 -4 -10 -6 0 -11 5 -11 10 0 6 2 10 4 10 3 0
8 -4 11 -10z m97 -120 c4 -3 -8 -6 -27 -6 -19 0 -35 3 -35 7 0 9 43 17 50 10
3 -3 8 -8 12 -11z m63 -1 c-10 -15 -25 -10 -19 6 4 8 10 12 15 9 5 -3 7 -10 4
-15z m-198 -28 c1 -14 -3 -18 -13 -14 -15 6 -18 16 -7 26 11 12 19 8 20 -12z
m105 -36 c-5 -31 -34 -56 -52 -45 -13 8 -12 10 3 10 17 0 17 1 1 17 -15 16
-17 16 -29 0 -13 -18 -25 -13 -25 10 0 7 9 13 19 13 11 0 23 5 26 11 4 5 19 9
33 7 21 -2 26 -8 24 -23z"/>
<path d="M1206 3453 c-11 -11 -6 -23 9 -23 8 0 15 4 15 9 0 13 -16 22 -24 14z"/>
<path d="M2940 3430 c0 -5 7 -10 15 -10 8 0 15 5 15 10 0 6 -7 10 -15 10 -8 0
-15 -4 -15 -10z"/>
<path d="M4195 3260 c-3 -5 -1 -10 4 -10 6 0 11 5 11 10 0 6 -2 10 -4 10 -3 0
-8 -4 -11 -10z"/>
<path d="M1470 3225 c0 -9 5 -15 11 -13 6 2 11 8 11 13 0 5 -5 11 -11 13 -6 2
-11 -4 -11 -13z"/>
<path d="M760 3114 c0 -14 3 -14 15 -4 8 7 15 14 15 16 0 2 -7 4 -15 4 -8 0
-15 -7 -15 -16z"/>
<path d="M4372 3034 c4 -21 22 -23 26 -1 2 10 -3 17 -13 17 -10 0 -15 -6 -13
-16z"/>
<path d="M2945 3001 c-6 -11 9 -23 19 -14 9 9 7 23 -3 23 -6 0 -12 -4 -16 -9z"/>
<path d="M4395 2970 c-3 -5 -1 -10 4 -10 6 0 11 5 11 10 0 6 -2 10 -4 10 -3 0
-8 -4 -11 -10z"/>
<path d="M696 2872 c-3 -6 -1 -14 5 -17 15 -10 25 3 12 16 -7 7 -13 7 -17 1z"/>
<path d="M1430 2870 c0 -5 5 -10 10 -10 6 0 10 5 10 10 0 6 -4 10 -10 10 -5 0
-10 -4 -10 -10z"/>
<path d="M695 2830 c-3 -5 1 -10 10 -10 9 0 13 5 10 10 -3 6 -8 10 -10 10 -2
0 -7 -4 -10 -10z"/>
<path d="M2940 2770 c0 -5 5 -10 11 -10 5 0 7 5 4 10 -3 6 -8 10 -11 10 -2 0
-4 -4 -4 -10z"/>
<path d="M1935 2720 c3 -5 10 -10 16 -10 5 0 9 5 9 10 0 6 -7 10 -16 10 -8 0
-12 -4 -9 -10z"/>
<path d="M2096 2553 c-9 -9 -7 -33 3 -33 12 0 22 28 12 34 -5 3 -11 3 -15 -1z"/>
<path d="M570 2150 c0 -5 5 -10 10 -10 6 0 10 5 10 10 0 6 -4 10 -10 10 -5 0
-10 -4 -10 -10z"/>
<path d="M3366 1942 c-4 -3 -30 -10 -50 -11 -4 -1 -5 -8 -2 -17 4 -12 1 -14
-14 -9 -15 5 -20 2 -20 -13 0 -26 -21 -42 -47 -36 -11 3 -24 1 -28 -5 -3 -6
-3 -11 2 -10 23 4 29 -3 25 -33 -4 -27 -6 -29 -17 -15 -7 9 -17 17 -24 17 -6
0 -11 5 -11 10 0 6 -6 10 -12 10 -17 -1 -58 -35 -58 -49 0 -9 -6 -9 -20 -1
-24 13 -60 -3 -60 -27 0 -10 -6 -14 -20 -10 -12 3 -24 -1 -30 -11 -5 -10 -10
-13 -10 -8 0 5 -7 3 -15 -4 -9 -7 -13 -21 -10 -31 8 -24 -8 -31 -38 -16 -18
10 -23 17 -16 28 6 11 4 16 -6 16 -8 0 -15 -9 -15 -19 0 -19 -15 -24 -25 -8
-3 6 -13 10 -21 10 -8 0 -12 -4 -9 -10 3 -5 0 -10 -9 -10 -8 0 -16 4 -18 10
-1 5 -19 0 -38 -12 -19 -12 -53 -27 -75 -33 -27 -7 -44 -18 -52 -36 -14 -28
-43 -57 -43 -43 0 5 -11 9 -25 9 -14 0 -25 -3 -25 -7 0 -5 7 -8 15 -8 8 0 15
-4 15 -10 0 -5 -8 -10 -17 -10 -10 0 -14 -4 -8 -8 6 -4 11 -15 13 -25 3 -15 0
-17 -17 -8 -11 6 -21 21 -23 33 -2 12 -9 23 -17 26 -9 3 -11 -2 -6 -18 5 -17
2 -23 -14 -27 -12 -3 -21 -10 -21 -15 0 -6 -9 -7 -22 -3 -13 4 -33 6 -44 6
-12 0 -27 6 -34 14 -14 17 -46 20 -55 5 -4 -6 -12 -9 -19 -8 -13 3 -166 -177
-166 -195 0 -5 10 -7 23 -3 26 6 71 -19 62 -35 -4 -5 1 -12 10 -15 12 -5 13
-9 4 -20 -8 -10 -8 -14 0 -14 6 0 11 -7 11 -15 0 -8 5 -15 11 -15 7 0 9 -12 7
-30 -4 -29 -3 -31 24 -25 18 4 28 3 28 -5 0 -7 6 -10 14 -7 8 3 26 -5 39 -17
17 -15 30 -20 39 -15 21 14 26 11 33 -21 5 -23 11 -29 23 -26 10 3 24 1 32 -4
10 -6 20 -4 32 7 23 21 34 11 13 -11 -9 -9 -12 -16 -6 -16 6 0 11 -4 11 -10 0
-5 -7 -10 -15 -10 -21 0 -19 -20 3 -21 40 -3 45 -5 56 -22 8 -13 8 -20 -2 -26
-9 -5 -2 -15 27 -34 22 -15 43 -27 46 -27 3 0 19 -15 35 -32 25 -28 31 -31 40
-18 8 13 10 12 10 -4 0 -15 3 -16 15 -6 15 13 50 6 41 -8 -2 -4 5 -19 16 -32
l20 -25 -6 27 c-5 22 -3 26 9 22 8 -4 15 -10 15 -15 0 -5 7 -9 16 -9 11 0 13
-6 9 -19 -6 -21 21 -61 42 -61 7 0 13 -4 13 -10 0 -19 22 -10 27 11 5 19 8 17
23 -15 9 -20 19 -34 22 -31 9 10 58 -6 52 -17 -3 -5 -12 -7 -20 -4 -8 3 -11 0
-7 -10 6 -15 23 -19 23 -5 0 5 9 11 20 14 16 4 20 2 15 -12 -7 -24 4 -51 20
-51 7 0 16 -6 18 -12 4 -10 6 -10 6 0 1 7 14 12 31 12 16 0 29 -3 28 -7 -2 -5
5 -19 15 -33 9 -13 17 -19 17 -12 0 6 5 12 10 12 6 0 10 -8 8 -17 -2 -11 11
-24 35 -37 33 -17 40 -18 47 -6 7 10 10 11 10 3 0 -7 9 -13 20 -13 13 0 22 -9
26 -25 3 -14 10 -25 14 -25 5 0 17 -3 27 -6 17 -5 17 -5 1 6 -10 6 -18 17 -18
23 0 7 8 13 18 14 9 1 27 4 39 8 16 5 23 2 28 -14 6 -20 74 -61 100 -61 6 0
19 14 29 30 9 17 30 40 46 52 16 12 27 25 24 30 -7 11 36 59 47 53 4 -3 5 4 2
15 -3 11 0 20 6 20 9 0 9 5 1 20 -6 11 -14 19 -18 19 -19 -3 -25 2 -12 11 11
7 12 12 4 20 -15 15 -6 50 12 50 19 0 18 7 -7 41 l-20 29 24 11 c35 16 26 79
-11 79 -14 0 -15 2 -3 9 12 8 12 12 2 25 -8 9 -10 16 -5 16 5 0 4 4 -3 8 -7 4
-9 13 -4 21 10 16 31 6 31 -15 0 -8 4 -14 9 -14 6 0 6 12 0 30 -6 17 -15 30
-20 30 -4 0 -6 7 -3 15 4 8 12 15 20 15 17 0 18 17 2 23 -10 4 -10 7 -1 14 11
8 14 197 3 205 -3 2 -14 8 -24 14 -11 6 -22 16 -24 24 -3 7 0 10 6 6 12 -7 20
20 14 47 -2 9 -9 17 -14 17 -5 0 -7 -4 -4 -9 9 -13 -4 -42 -16 -35 -5 3 -7 12
-4 19 3 9 -2 12 -15 10 -29 -6 -23 8 10 23 26 11 28 15 17 37 -6 14 -15 25
-19 25 -5 0 0 12 10 28 27 38 29 82 3 82 -12 0 -17 5 -14 14 3 8 1 17 -5 20
-17 11 -1 36 23 36 18 1 17 4 -14 30 -19 16 -43 30 -52 30 -22 0 -23 16 -2 24
8 3 12 10 9 16 -9 14 19 12 34 -2 10 -11 12 -10 9 2 -4 20 -21 39 -30 33 -12
-7 -9 32 3 44 13 13 2 56 -12 48 -5 -4 -9 3 -9 15 0 14 4 19 13 13 6 -4 1 7
-13 24 -16 21 -37 34 -60 38 -19 3 -65 12 -103 19 -37 7 -69 11 -71 8z m14
-93 c0 -4 -4 -11 -10 -14 -5 -3 -10 -1 -10 4 0 6 -7 11 -16 11 -8 0 -13 4 -10
9 7 11 46 2 46 -10z m-70 -1 c0 -19 -18 -43 -25 -36 -9 9 4 48 16 48 5 0 9 -6
9 -12z m233 -14 c9 -4 17 -10 17 -16 0 -5 -10 -3 -22 3 -13 7 -25 11 -28 10
-2 -1 -6 3 -8 10 -3 7 1 9 9 5 8 -3 22 -9 32 -12z m57 -57 c0 -2 -9 -12 -19
-21 -19 -17 -19 -17 -14 3 3 12 12 21 19 21 8 0 14 -2 14 -3z m-350 -37 c0
-13 -11 -13 -30 0 -12 8 -11 10 8 10 12 0 22 -4 22 -10z m50 -20 c0 -5 -2 -10
-4 -10 -3 0 -8 5 -11 10 -3 6 -1 10 4 10 6 0 11 -4 11 -10z m80 -82 c-4 -74
-3 -78 35 -78 19 0 35 -3 35 -8 0 -13 -39 -32 -54 -26 -12 5 -13 0 -5 -29 5
-20 9 -39 7 -44 -1 -4 2 -18 6 -31 4 -13 3 -28 -3 -36 -19 -23 8 -89 34 -80
19 8 29 -14 14 -32 -10 -13 -10 -17 2 -25 8 -5 10 -9 4 -9 -5 0 -2 -5 8 -11
18 -10 18 -11 0 -25 -25 -19 -32 -17 -26 6 3 12 0 20 -6 20 -8 0 -11 -12 -8
-32 3 -28 8 -33 30 -33 14 -1 30 -5 34 -10 4 -6 4 -7 -1 -3 -10 8 -36 -15 -36
-31 0 -6 5 -11 10 -11 6 0 10 5 10 10 0 6 4 10 8 10 4 0 8 -9 8 -20 0 -15 -5
-18 -18 -14 -22 7 -23 0 -3 -30 14 -21 14 -23 -7 -22 -19 1 -23 -5 -26 -36 -2
-24 1 -38 9 -38 6 0 9 8 6 18 -3 15 1 19 23 18 23 -1 25 -4 16 -18 -6 -10 -14
-18 -19 -18 -4 0 -5 -4 -2 -10 3 -5 0 -10 -7 -10 -7 0 -1 -8 14 -18 20 -13 24
-22 18 -32 -9 -14 -15 -6 -11 14 1 5 -5 4 -13 -3 -8 -7 -21 -9 -28 -5 -10 6
-9 3 1 -9 7 -9 19 -17 27 -17 7 0 16 -5 20 -12 4 -6 3 -8 -4 -4 -5 3 -13 0
-16 -6 -5 -10 -7 -10 -12 0 -10 22 -25 13 -20 -13 3 -13 0 -27 -5 -30 -5 -4
-3 -12 4 -19 6 -8 15 -12 19 -10 4 2 9 0 13 -6 3 -5 -3 -10 -14 -10 -12 0 -21
-5 -21 -11 0 -5 5 -7 11 -3 7 4 10 0 7 -11 -2 -13 -15 -17 -55 -19 -29 -1 -53
2 -53 7 0 4 6 5 13 2 6 -4 2 2 -10 13 -14 12 -31 18 -43 15 -14 -4 -23 2 -31
21 -7 14 -17 26 -22 26 -6 0 -19 7 -29 17 -17 15 -18 15 -18 -6 0 -12 -4 -20
-9 -17 -5 4 -12 0 -15 -6 -3 -7 -3 5 1 27 6 37 5 38 -10 23 -10 -9 -17 -21
-17 -27 0 -6 -5 -11 -10 -11 -6 0 -4 13 5 29 16 31 8 45 -25 46 -8 0 -14 6
-12 14 2 10 -4 12 -25 7 -19 -4 -23 -4 -14 3 11 7 9 10 -8 16 -12 3 -19 10
-16 15 7 11 -32 33 -45 25 -6 -3 -10 0 -10 8 0 8 -7 18 -16 21 -12 4 -15 2
-10 -9 3 -8 1 -15 -4 -15 -5 0 -7 -7 -4 -15 4 -10 0 -15 -15 -15 -23 0 -29 15
-8 23 7 3 5 6 -5 6 -10 1 -18 6 -18 11 0 6 -6 10 -14 10 -9 0 -12 8 -8 25 4
24 5 24 19 8 13 -17 14 -17 11 0 -2 10 -15 26 -30 35 -26 16 -28 15 -42 -3
-14 -19 -15 -19 -27 10 -10 24 -13 26 -16 12 -4 -14 -8 -16 -18 -7 -8 6 -11
18 -8 26 3 8 -1 14 -11 14 -18 0 -22 15 -6 25 14 9 12 25 -3 25 -7 0 -28 11
-47 25 -39 29 -50 31 -50 10 0 -8 -5 -15 -11 -15 -6 0 -8 9 -4 21 7 22 -18 59
-42 59 -28 0 -1 31 45 50 20 9 23 15 16 42 -6 29 -5 31 10 19 14 -12 16 -11
16 10 l0 23 16 -23 c14 -19 14 -25 3 -32 -21 -13 7 -12 32 2 14 7 18 16 13 31
-5 18 -3 20 18 15 29 -8 42 1 28 18 -7 8 -3 15 15 23 21 10 25 9 25 -3 0 -19
16 -19 24 0 7 20 26 19 26 -1 0 -13 7 -15 32 -10 35 7 44 13 36 22 -4 3 -15 1
-26 -5 -17 -9 -20 -7 -24 13 -5 23 -2 24 39 21 31 -2 43 1 43 11 0 19 16 18
24 -1 3 -8 10 -15 16 -15 6 0 8 4 5 10 -3 5 0 7 8 4 21 -8 29 10 17 40 -5 15
-6 26 -1 26 5 0 13 -15 17 -32 l7 -33 10 25 10 25 6 -25 c6 -21 8 -22 14 -7 4
10 17 17 32 17 16 0 25 6 25 15 0 8 4 15 10 15 5 0 7 8 4 18 -5 16 -5 16 6 0
11 -18 36 -26 25 -9 -3 5 8 9 23 9 34 -1 55 9 46 23 -3 5 0 8 8 7 8 -2 12 5
11 20 -3 23 20 31 32 12 3 -5 11 -10 16 -10 6 0 8 4 5 9 -6 9 2 41 11 41 2 0
4 -15 3 -32z m-510 7 c14 -16 10 -18 -14 -9 -9 3 -16 10 -16 15 0 14 16 11 30
-6z m110 -5 c-11 -20 -30 -28 -30 -12 0 11 22 32 32 32 5 0 4 -9 -2 -20z m580
5 c6 -8 10 -19 8 -24 -1 -5 -11 2 -21 15 -19 26 -8 34 13 9z m-400 -37 c0 -5
-7 -8 -15 -8 -8 0 -15 4 -15 9 0 5 -3 17 -7 26 -5 16 -4 15 15 -1 12 -10 22
-22 22 -26z m40 38 c0 -3 -4 -8 -10 -11 -5 -3 -10 -1 -10 4 0 6 5 11 10 11 6
0 10 -2 10 -4z m-388 -29 c-7 -8 -9 -17 -5 -20 3 -4 2 -7 -4 -7 -19 0 -21 12
-5 31 9 10 18 16 20 14 3 -3 0 -11 -6 -18z m231 -14 c-3 -7 -9 -13 -15 -13 -5
0 -7 4 -3 9 3 5 1 12 -5 16 -5 3 -10 10 -10 16 0 5 9 4 19 -3 10 -6 17 -18 14
-25z m-407 -65 c-15 -21 -16 -22 -16 -2 0 11 6 26 12 32 19 19 22 -4 4 -30z
m54 32 c0 -5 -4 -10 -10 -10 -5 0 -10 5 -10 10 0 6 5 10 10 10 6 0 10 -4 10
-10z m275 -8 c-3 -3 -11 0 -18 7 -9 10 -8 11 6 5 10 -3 15 -9 12 -12z m585 8
c0 -8 -31 -30 -43 -30 -3 0 -7 7 -10 14 -4 10 -1 13 7 10 8 -3 17 -1 21 5 8
14 25 14 25 1z m-836 -15 c-4 -8 -8 -15 -10 -15 -2 0 -4 7 -4 15 0 8 4 15 10
15 5 0 7 -7 4 -15z m-144 -95 c0 -5 -4 -10 -9 -10 -6 0 -13 5 -16 10 -3 6 1
10 9 10 9 0 16 -4 16 -10z m54 -16 c3 -8 2 -12 -4 -9 -6 3 -10 10 -10 16 0 14
7 11 14 -7z m886 6 c-18 -12 -43 -13 -36 -2 2 4 15 8 28 9 18 2 19 0 8 -7z
m-1340 -80 c0 -5 -5 -10 -11 -10 -5 0 -7 5 -4 10 3 6 8 10 11 10 2 0 4 -4 4
-10z m1415 -20 c-3 -5 -12 -10 -18 -10 -7 0 -6 4 3 10 19 12 23 12 15 0z
m-1390 -10 c-28 -12 -37 -12 -30 0 3 6 16 10 28 9 21 0 21 -1 2 -9z m115 -32
c0 -18 -2 -20 -9 -8 -6 8 -7 18 -5 22 9 14 14 9 14 -14z m1250 -23 c0 -12 -29
-3 -34 10 -4 13 -2 14 14 5 11 -6 20 -13 20 -15z m100 -35 c8 -5 11 -12 8 -15
-4 -4 -17 0 -30 9 -24 17 -5 23 22 6z m-1135 -30 c3 -5 1 -10 -4 -10 -6 0 -11
5 -11 10 0 6 2 10 4 10 3 0 8 -4 11 -10z m1195 0 c0 -5 -4 -10 -10 -10 -5 0
-10 5 -10 10 0 6 5 10 10 10 6 0 10 -4 10 -10z m-67 -38 c-3 -12 -12 -22 -19
-22 -18 0 -18 6 4 28 21 23 23 22 15 -6z m-954 -23 c-22 -14 -33 -10 -19 6 7
8 17 12 22 9 6 -4 5 -10 -3 -15z m-149 -59 c0 -5 -9 -10 -19 -10 -11 0 -23 5
-26 10 -4 6 5 10 19 10 14 0 26 -4 26 -10z m1114 -52 c6 -4 7 -10 4 -14 -11
-10 -40 24 -32 38 6 9 9 8 12 -2 3 -8 10 -18 16 -22z m-1064 -42 c0 -7 9 -16
20 -19 11 -3 20 -1 20 5 0 5 5 6 10 3 6 -4 8 -11 5 -16 -6 -9 -46 -6 -65 6
-13 8 -13 35 0 35 6 0 10 -6 10 -14z m1074 -11 c-10 -8 -25 -15 -33 -15 -11 0
-9 4 5 15 10 8 25 15 33 15 11 0 9 -4 -5 -15z m-99 -55 c-3 -5 -12 -10 -18
-10 -7 0 -6 4 3 10 19 12 23 12 15 0z m-828 -47 c1 -26 0 -27 -13 -8 -17 23
-18 35 -1 35 6 0 13 -12 14 -27z m853 17 c0 -13 -49 -18 -53 -6 -3 6 8 11 24
12 16 1 29 -2 29 -6z m-720 -4 c0 -3 -4 -8 -10 -11 -5 -3 -10 -1 -10 4 0 6 5
11 10 11 6 0 10 -2 10 -4z m32 -8 c5 -15 -20 -43 -30 -34 -3 4 0 11 7 15 7 5
10 14 7 20 -4 6 -3 11 3 11 5 0 11 -6 13 -12z m-126 -33 c-20 -15 -36 -19 -36
-10 0 5 38 23 50 24 3 0 -4 -6 -14 -14z m219 -12 c-26 -18 -34 -16 -28 6 3 13
11 17 25 13 20 -5 20 -6 3 -19z m55 -23 c0 -5 -4 -10 -10 -10 -5 0 -10 5 -10
10 0 6 5 10 10 10 6 0 10 -4 10 -10z m470 -30 c0 -5 -4 -10 -10 -10 -5 0 -10
5 -10 10 0 6 5 10 10 10 6 0 10 -4 10 -10z m-430 -55 c-7 -8 -18 -15 -24 -15
-6 0 -3 7 7 14 9 7 17 19 18 27 0 11 2 11 6 1 3 -7 -1 -19 -7 -27z m440 5 c0
-5 -4 -10 -10 -10 -5 0 -10 5 -10 10 0 6 5 10 10 10 6 0 10 -4 10 -10z m-320
-13 c0 -2 -10 -12 -21 -23 -22 -19 -22 -19 -8 4 12 19 29 30 29 19z m197 -58
c-14 -19 -17 -20 -23 -6 -7 19 17 49 30 37 4 -5 1 -18 -7 -31z m-172 21 c3 -5
1 -10 -4 -10 -6 0 -11 5 -11 10 0 6 2 10 4 10 3 0 8 -4 11 -10z m350 -32 c3
-3 -5 -8 -19 -10 -14 -3 -27 0 -29 6 -5 12 38 15 48 4z m-250 -8 c3 -5 -1 -10
-10 -10 -9 0 -13 5 -10 10 3 6 8 10 10 10 2 0 7 -4 10 -10z m105 -110 c0 -5
-5 -10 -11 -10 -5 0 -7 5 -4 10 3 6 8 10 11 10 2 0 4 -4 4 -10z m44 -65 c15
-11 16 -15 5 -15 -8 0 -24 7 -35 15 -14 11 -15 14 -4 14 8 0 24 -6 34 -14z"/>
<path d="M2817 1396 c-4 -10 -1 -13 8 -9 8 3 12 9 9 14 -7 12 -11 11 -17 -5z"/>
<path d="M3430 1104 c0 -8 5 -12 10 -9 6 4 8 11 5 16 -9 14 -15 11 -15 -7z"/>
<path d="M2957 1757 c-3 -8 1 -14 9 -14 8 0 14 6 14 14 0 7 -4 13 -9 13 -5 0
-11 -6 -14 -13z"/>
<path d="M2910 1725 c0 -8 5 -15 10 -15 6 0 10 7 10 15 0 8 -4 15 -10 15 -5 0
-10 -7 -10 -15z"/>
<path d="M3635 1670 c3 -5 10 -10 16 -10 5 0 9 5 9 10 0 6 -7 10 -16 10 -8 0
-12 -4 -9 -10z"/>
<path d="M3657 1574 c-8 -8 1 -24 14 -24 5 0 9 7 9 15 0 15 -12 20 -23 9z"/>
<path d="M3710 890 c0 -5 5 -10 10 -10 6 0 10 5 10 10 0 6 -4 10 -10 10 -5 0
-10 -4 -10 -10z"/>
<path d="M3710 650 c0 -5 5 -10 10 -10 6 0 10 5 10 10 0 6 -4 10 -10 10 -5 0
-10 -4 -10 -10z"/>
<path d="M3310 439 c0 -5 5 -7 10 -4 6 3 10 8 10 11 0 2 -4 4 -10 4 -5 0 -10
-5 -10 -11z"/>
<path d="M3436 386 c7 -19 48 -22 42 -3 -3 6 -14 13 -26 15 -16 3 -20 -1 -16
-12z"/>
</g>
</svg>
